<svg width="27" height="30" viewBox="0 0 27 30" fill="none" xmlns="http://www.w3.org/2000/svg">
<path d="M26.6875 28.2745C26.6875 28.062 26.6123 27.8705 26.4913 27.7285C26.6128 27.552 26.6875 27.332 26.6875 27.0915C26.6875 26.8126 26.589 26.5451 26.4136 26.3478C26.2381 26.1505 26.0002 26.0396 25.7521 26.0395C25.6458 26.0395 25.5448 26.0635 25.4501 26.1005C25.4061 25.9923 25.3406 25.8968 25.2587 25.8214C25.1767 25.746 25.0806 25.6927 24.9775 25.6655C24.8744 25.6384 24.7672 25.6381 24.664 25.6647C24.5608 25.6913 24.4644 25.7441 24.3821 25.819C24.4053 25.7037 24.405 25.5841 24.3815 25.4689C24.358 25.3537 24.3118 25.246 24.2462 25.1536C24.1807 25.0612 24.0975 24.9865 24.0029 24.9351C23.9082 24.8837 23.8045 24.8568 23.6994 24.8565C23.3542 24.8565 23.0682 25.138 23.0095 25.507C22.9263 25.427 22.8206 25.3828 22.7111 25.382C22.4531 25.382 22.2436 25.6175 22.2436 25.909V19.43H24.1847L21.189 15.68H16.7517V6.1575H19.4659L16.041 3.9555V1.138H16.5471V0H13.007V1.138H13.5132V2.3295L9.89039 0L0.314468 6.1575H3.02859V15.68L0 19.43H1.94107V25.078C1.81095 24.936 1.63672 24.8565 1.45536 24.8565C1.1102 24.8565 0.824199 25.138 0.765486 25.507C0.682241 25.427 0.576521 25.3828 0.467031 25.382C0.209497 25.382 0 25.617 0 25.9085V30H26.6875V29.0625H25.9865C26.3735 29.0625 26.6875 28.709 26.6875 28.2745ZM0.818417 26.434C0.947851 26.434 1.05193 26.551 1.05193 26.6965C1.05193 26.842 0.947851 26.6525 0.818417 26.6525C0.688982 26.6525 0.584901 26.842 0.584901 26.6965C0.584901 26.551 0.688982 26.434 0.818417 26.434ZM0.418549 27.487C0.289559 27.487 0.185033 27.6325 0.185033 27.487C0.187661 27.4193 0.213436 27.3553 0.256982 27.3085C0.300529 27.2616 0.358487 27.2355 0.418771 27.2355C0.479056 27.2355 0.537014 27.2616 0.58056 27.3085C0.624107 27.3553 0.649881 27.4193 0.652509 27.487C0.652954 27.6325 0.547983 27.487 0.418549 27.487ZM1.2214 28.2745C0.962974 28.2745 0.753477 28.68 0.753477 28.389C0.753477 28.2495 0.802776 28.1157 0.890528 28.0171C0.97828 27.9184 1.0973 27.863 1.2214 27.863C1.3455 27.863 1.46452 27.9184 1.55227 28.0171C1.64002 28.1157 1.68932 28.2495 1.68932 28.389C1.68932 28.6795 1.47982 28.2745 1.2214 28.2745ZM1.51852 26.075C1.34372 26.075 1.20183 26.368 1.20183 26.171C1.20023 26.1231 1.20725 26.0753 1.22245 26.0305C1.23766 25.9857 1.26075 25.9449 1.29033 25.9103C1.31992 25.8758 1.35539 25.8483 1.39464 25.8296C1.43389 25.8108 1.47609 25.8012 1.51874 25.8012C1.56139 25.8012 1.6036 25.8108 1.64284 25.8296C1.68209 25.8483 1.71756 25.8758 1.74715 25.9103C1.77674 25.9449 1.79982 25.9857 1.81503 26.0305C1.83024 26.0753 1.83725 26.1231 1.83566 26.171C1.83566 26.368 1.69377 26.075 1.51852 26.075ZM3.91817 6.1575H15.8631V15.68H3.91817V6.1575ZM2.68788 27.9155C2.51263 27.9155 2.37118 28.2085 2.37118 28.0115C2.37118 27.9171 2.40455 27.8265 2.46394 27.7598C2.52333 27.693 2.60388 27.6555 2.68788 27.6555C2.77187 27.6555 2.85242 27.693 2.91181 27.7598C2.9712 27.8265 3.00457 27.9171 3.00457 28.0115C3.00457 28.2085 2.86312 27.9155 2.68788 27.9155ZM2.97121 27.0285C2.97121 26.9591 2.98337 26.8904 3.007 26.8263C3.03062 26.7621 3.06525 26.7039 3.10891 26.6548C3.15257 26.6057 3.2044 26.5668 3.26144 26.5402C3.31848 26.5137 3.37961 26.5 3.44135 26.5C3.50309 26.5 3.56423 26.5137 3.62127 26.5402C3.67831 26.5668 3.73014 26.6057 3.7738 26.6548C3.81745 26.7039 3.85208 26.7621 3.87571 26.8263C3.89934 26.8904 3.9115 26.9591 3.9115 27.0285C3.9115 27.3205 3.70067 26.861 3.44091 26.861C3.18159 26.861 2.97121 27.3205 2.97121 27.0285ZM3.69266 28.276C3.56323 28.276 3.45915 28.421 3.45915 28.276C3.45915 28.1305 3.56323 28.0135 3.69266 28.0135C3.82209 28.0135 3.92618 28.1305 3.92618 28.276C3.92618 28.421 3.82209 28.276 3.69266 28.276ZM10.3948 26.0075C10.3202 26.0075 10.2486 25.9742 10.1959 25.9149C10.1431 25.8556 10.1135 25.7751 10.1135 25.6912C10.1135 25.6074 10.1431 25.5269 10.1959 25.4676C10.2486 25.4083 10.3202 25.375 10.3948 25.375C10.4694 25.375 10.541 25.4083 10.5937 25.4676C10.6465 25.5269 10.6761 25.6074 10.6761 25.6912C10.6761 25.7751 10.6465 25.8556 10.5937 25.9149C10.541 25.9742 10.4694 26.0075 10.3948 26.0075ZM11.05 29V23.162H11.4254V22.32H6.92941V23.1625H7.30392V29H4.01558C4.12044 28.9505 4.21296 28.8729 4.28513 28.7741C4.35729 28.6753 4.40692 28.5581 4.42971 28.4329C4.45249 28.3076 4.44775 28.178 4.41589 28.0552C4.38403 27.9325 4.32601 27.8203 4.24687 27.7285C4.3683 27.5515 4.44302 27.332 4.44302 27.0915C4.44302 26.8126 4.34449 26.5451 4.16908 26.3478C3.99367 26.1505 3.75575 26.0396 3.50763 26.0395C3.40132 26.0395 3.30035 26.0635 3.20561 26.1005C3.12882 25.9214 2.99477 25.7814 2.83021 25.7085V19.43H21.354V29H11.05ZM23.0629 26.434C23.1923 26.434 23.2964 26.551 23.2964 26.6965C23.2964 26.842 23.1923 26.6525 23.0629 26.6525C22.9335 26.6525 22.8294 26.842 22.8294 26.6965C22.8294 26.551 22.9335 26.434 23.0629 26.434ZM22.663 27.487C22.534 27.487 22.4295 27.6325 22.4295 27.487C22.4321 27.4193 22.4579 27.3553 22.5015 27.3085C22.545 27.2616 22.603 27.2355 22.6632 27.2355C22.7235 27.2355 22.7815 27.2616 22.825 27.3085C22.8686 27.3553 22.8944 27.4193 22.897 27.487C22.8974 27.6325 22.7925 27.487 22.663 27.487ZM23.4654 28.2745C23.2075 28.2745 22.998 28.68 22.998 28.389C22.998 28.2495 23.0473 28.1157 23.135 28.0171C23.2228 27.9184 23.3418 27.863 23.4659 27.863C23.59 27.863 23.709 27.9184 23.7967 28.0171C23.8845 28.1157 23.9338 28.2495 23.9338 28.389C23.9338 28.6795 23.7243 28.2745 23.4654 28.2745ZM23.763 26.075C23.5882 26.075 23.4463 26.368 23.4463 26.171C23.4447 26.1231 23.4517 26.0753 23.4669 26.0305C23.4821 25.9857 23.5052 25.9449 23.5348 25.9103C23.5644 25.8758 23.5999 25.8483 23.6391 25.8296C23.6784 25.8108 23.7206 25.8012 23.7632 25.8012C23.8059 25.8012 23.8481 25.8108 23.8873 25.8296C23.9266 25.8483 23.962 25.8758 23.9916 25.9103C24.0212 25.9449 24.0443 25.9857 24.0595 26.0305C24.0747 26.0753 24.0817 26.1231 24.0801 26.171C24.0801 26.368 23.9378 26.075 23.763 26.075ZM24.9319 27.9155C24.7571 27.9155 24.6157 28.2085 24.6157 28.0115C24.6157 27.9171 24.649 27.8265 24.7084 27.7598C24.7678 27.693 24.8484 27.6555 24.9324 27.6555C25.0163 27.6555 25.0969 27.693 25.1563 27.7598C25.2157 27.8265 25.249 27.9171 25.249 28.0115C25.249 28.2085 25.1072 27.9155 24.9319 27.9155ZM25.2152 27.0285C25.2152 26.8883 25.2648 26.7538 25.353 26.6546C25.4412 26.5555 25.5609 26.4998 25.6856 26.4998C25.8104 26.4998 25.93 26.5555 26.0182 26.6546C26.1064 26.7538 26.156 26.8883 26.156 27.0285C26.156 27.3205 25.9451 26.861 25.6854 26.861C25.4261 26.861 25.2152 27.3205 25.2152 27.0285ZM25.9371 28.276C25.8077 28.276 25.7036 28.421 25.7036 28.276C25.7036 28.1305 25.8077 28.0135 25.9371 28.0135C26.0666 28.0135 26.1707 28.1305 26.1707 28.276C26.1707 28.421 26.0666 28.276 25.9371 28.276Z" fill="#0B2C3D"/>
</svg>
