<svg width="19" height="19" viewBox="0 0 19 19" fill="none" xmlns="http://www.w3.org/2000/svg">
<path fill-rule="evenodd" clip-rule="evenodd" d="M7.05755 6.62055H10.5858V8.37805C11.0941 7.36725 12.3975 6.45905 14.3554 6.45905C18.1089 6.45905 19 8.47115 19 12.1629V19H15.2V13.0036C15.2 10.9012 14.6918 9.71565 13.3979 9.71565C11.6033 9.71565 10.8575 10.9934 10.8575 13.0027V19H7.05755V6.62055ZM0.5415 18.8385H4.3415V6.45905H0.5415V18.8385ZM4.88585 2.4225C4.88599 2.74101 4.82282 3.05637 4.70002 3.35026C4.57721 3.64414 4.39722 3.91069 4.1705 4.1344C3.71108 4.59099 3.08922 4.84657 2.4415 4.845C1.79492 4.84457 1.1745 4.58964 0.7144 4.13535C0.488501 3.91088 0.309117 3.64403 0.186526 3.35011C0.0639364 3.05619 0.000550175 2.74096 0 2.4225C0 1.77935 0.2565 1.16375 0.71535 0.70965C1.17504 0.254751 1.79573 -0.00028425 2.44245 2.37751e-07C3.09035 2.37751e-07 3.71165 0.25555 4.1705 0.70965C4.6284 1.16375 4.88585 1.77935 4.88585 2.4225Z" fill="white"/>
</svg>
