<svg width="58" height="46" viewBox="0 0 58 46" fill="none" xmlns="http://www.w3.org/2000/svg">
<path d="M49.8332 0H0V38.3332H49.8332V0ZM45.9999 34.4999H3.83332V3.83332H45.9999V34.4999Z" fill="#FF3030"/>
<path d="M53.6671 9.58342V42.1667H9.58391V46H57.5005V9.58342H53.6671Z" fill="#FF3030"/>
<path d="M24.9161 28.5654C29.6718 28.5654 33.5411 24.3563 33.5411 19.1826C33.5411 14.0089 29.6718 9.79983 24.9161 9.79983C20.1604 9.79983 16.2911 14.0088 16.2911 19.1826C16.2911 24.3564 20.1604 28.5654 24.9161 28.5654ZM24.9161 13.6332C27.5582 13.6332 29.7078 16.1227 29.7078 19.1826C29.7078 22.2426 27.5582 24.7321 24.9161 24.7321C22.274 24.7321 20.1245 22.2426 20.1245 19.1826C20.1245 16.1227 22.274 13.6332 24.9161 13.6332ZM7.66617 8.62492H11.4995V29.7082H7.66617V8.62492ZM38.3328 8.62492H42.1661V29.7082H38.3328V8.62492Z" fill="#FF3030"/>
</svg>
