<svg width="13" height="18" viewBox="0 0 13 18" fill="none" xmlns="http://www.w3.org/2000/svg">
<path d="M7.30234 17.1556C9.03906 14.9493 13 9.60194 13 6.59832C13 2.9555 10.0885 0 6.5 0C2.91146 0 0 2.9555 0 6.59832C0 9.60194 3.96094 14.9493 5.69766 17.1556C6.11406 17.6814 6.88594 17.6814 7.30234 17.1556ZM6.5 8.79777C5.30495 8.79777 4.33333 7.81145 4.33333 6.59832C4.33333 5.38519 5.30495 4.39888 6.5 4.39888C7.69505 4.39888 8.66667 5.38519 8.66667 6.59832C8.66667 7.81145 7.69505 8.79777 6.5 8.79777Z" fill="#B1B1B1"/>
</svg>
