<svg width="17" height="14" viewBox="0 0 17 14" fill="none" xmlns="http://www.w3.org/2000/svg">
<path d="M8.17721 8.46869L7.30962 9.36918L8.17535 11.1663L9.02715 10.2331L8.17721 8.46869ZM8.72927 12.3161L9.54041 14L10.3922 13.0667L9.58107 11.3829L8.72927 12.3161ZM15.3841 5.02523L14.5428 5.9469L16.1587 6.74904L17 5.82736L15.3841 5.02523ZM11.8803 4.62518L13.4394 5.39911L14.2806 4.47748L12.7531 3.71921L11.8803 4.62518ZM10.6138 10.2515L11.6513 11.6873L12.4634 10.7976L11.4258 9.36178L10.6138 10.2515ZM10.7174 8.38133L9.66481 6.92467L8.83338 7.78763L9.90529 9.27102L10.7174 8.38133ZM10.3576 6.20559L11.692 7.31358L12.4953 6.4334L11.1858 5.34603L10.3576 6.20559ZM12.6041 8.07094L13.9398 9.18007L14.7432 8.29989L13.4074 7.1908L12.6041 8.07094ZM12.1016 1.17676L11.1471 2.16741L10.248 1.23419C9.87099 0.842902 9.42344 0.532517 8.93088 0.320755C8.43832 0.108993 7.9104 0 7.37726 0C6.84412 0 6.31619 0.108993 5.82363 0.320755C5.33108 0.532517 4.88352 0.842902 4.50654 1.23419C4.4941 1.24706 4.48206 1.2602 4.46983 1.27323C4.04508 0.962643 3.54629 0.779125 3.0279 0.7427C2.50951 0.706276 1.99144 0.818345 1.53023 1.06668C1.06903 1.31501 0.682397 1.69006 0.412545 2.1509C0.142694 2.61174 -1.28823e-05 3.14067 8.7222e-10 3.67995V12.7793H1.16401V3.67995C1.164 3.36356 1.24731 3.05319 1.40493 2.78238C1.56255 2.51157 1.78848 2.29062 2.05831 2.14342C2.32814 1.99623 2.63159 1.92837 2.93588 1.9472C3.24017 1.96603 3.53371 2.07082 3.78478 2.25025C3.38208 3.04654 3.23492 3.95551 3.36474 4.84468C3.49457 5.73385 3.8946 6.55675 4.50654 7.19345L5.40562 8.12663L4.53553 9.02977L5.26303 9.78486L12.8291 1.93186L12.1016 1.17676ZM6.14764 7.18824L5.3296 6.33917C4.7918 5.77437 4.49119 5.01163 4.49343 4.21754C4.49567 3.42345 4.80058 2.66255 5.34156 2.10103C5.88254 1.53951 6.61563 1.22301 7.38071 1.22066C8.14578 1.2183 8.88066 1.53029 9.42484 2.08847L10.2429 2.93757L6.14764 7.18824Z" fill="#FF5A3C"/>
</svg>
