<svg width="79" height="63" viewBox="0 0 79 63" fill="none" xmlns="http://www.w3.org/2000/svg">
<path opacity="0.2" d="M6.70218 9.02475C12.2423 3.03581 20.6255 0 31.6149 0H35.5637V11.0998L32.3889 11.7338C26.9791 12.8126 23.2159 14.9349 21.202 18.0495C20.1512 19.7274 19.5553 21.6485 19.4725 23.625H31.6149C32.6622 23.625 33.6666 24.0398 34.4071 24.7783C35.1476 25.5167 35.5637 26.5182 35.5637 27.5625V55.125C35.5637 59.4681 32.0216 63 27.6661 63H3.97359C2.92631 63 1.92193 62.5852 1.18139 61.8467C0.440858 61.1083 0.0248291 60.1068 0.0248291 59.0625V39.375L0.0366755 27.8814C0.00113666 27.4444 -0.749128 17.0887 6.70218 9.02475ZM71.1025 63H47.4099C46.3627 63 45.3583 62.5852 44.6177 61.8467C43.8772 61.1083 43.4612 60.1068 43.4612 59.0625V39.375L43.473 27.8814C43.4375 27.4444 42.6872 17.0887 50.1385 9.02475C55.6786 3.03581 64.0618 0 75.0512 0H79V11.0998L75.8252 11.7338C70.4154 12.8126 66.6522 14.9349 64.6384 18.0495C63.5876 19.7274 62.9916 21.6485 62.9088 23.625H75.0512C76.0985 23.625 77.1029 24.0398 77.8434 24.7783C78.584 25.5167 79 26.5182 79 27.5625V55.125C79 59.4681 75.458 63 71.1025 63Z" fill="#B1B1B1"/>
</svg>
