<svg width="13" height="17" viewBox="0 0 13 17" fill="none" xmlns="http://www.w3.org/2000/svg">
<path d="M6.44472 5.93409L5.10068 7.19537C5.27712 7.83187 5.52535 8.44415 5.84015 9.01929C6.16778 9.59047 6.56192 10.1169 7.01354 10.5865L8.75413 10.0256C9.72925 9.71112 10.7938 10.0341 11.4422 10.8415L12.4336 12.0756C12.835 12.571 13.0362 13.2104 12.9946 13.8583C12.9531 14.5062 12.672 15.1118 12.2109 15.5467C10.5939 17.0901 8.10405 17.612 6.23995 16.0804C4.60163 14.7312 3.21541 13.0773 2.15094 11.2019C1.08413 9.33528 0.370179 7.27167 0.0479279 5.12327C-0.309616 2.70611 1.38222 0.771697 3.49173 0.112162C4.74964 -0.2822 6.09205 0.394334 6.55361 1.65561L7.09805 3.14297C7.4556 4.12207 7.19881 5.22526 6.44472 5.93239V5.93409Z" fill="white"/>
</svg>
