<svg width="70" height="63" viewBox="0 0 70 63" fill="none" xmlns="http://www.w3.org/2000/svg">
<path d="M69.3644 23.1158H49.0239C48.6743 23.1158 48.3882 23.4019 48.3882 23.7515V27.5653C48.3882 27.9149 48.6743 28.2009 49.0239 28.2009H69.3644C69.714 28.2009 70 27.9149 70 27.5653V23.7515C70 23.4019 69.714 23.1158 69.3644 23.1158ZM58.7174 33.9217H49.0239C48.6743 33.9217 48.3882 34.2078 48.3882 34.5574V38.3712C48.3882 38.7208 48.6743 39.0068 49.0239 39.0068H58.7174C59.067 39.0068 59.353 38.7208 59.353 38.3712V34.5574C59.353 34.2078 59.067 33.9217 58.7174 33.9217ZM32.2032 16.0046H28.7628C28.2702 16.0046 27.8729 16.4019 27.8729 16.8945V36.5994C27.8729 36.8854 28.008 37.1476 28.2384 37.3144L40.0693 45.9433C40.4666 46.2293 41.0227 46.1499 41.3088 45.7526L43.3508 42.9637V42.9558C43.6368 42.5585 43.5494 42.0023 43.1521 41.7163L33.0852 34.4382V16.8945C33.0931 16.4019 32.6879 16.0046 32.2032 16.0046Z" fill="#FF3030"/>
<path d="M58.2247 43.9252H53.6322C53.1873 43.9252 52.7662 44.1556 52.5278 44.537C51.5187 46.134 50.3428 47.6119 48.9921 48.9627C46.664 51.2907 43.9546 53.1181 40.9433 54.3894C37.8207 55.7084 34.5074 56.3758 31.0908 56.3758C27.6663 56.3758 24.353 55.7084 21.2384 54.3894C18.2271 53.1181 15.5176 51.2907 13.1896 48.9627C10.8616 46.6346 9.0341 43.9252 7.76282 40.9138C6.44386 37.7992 5.77644 34.4859 5.77644 31.0614C5.77644 27.6369 6.44386 24.3316 7.76282 21.209C9.0341 18.1976 10.8616 15.4882 13.1896 13.1602C15.5176 10.8322 18.2271 9.00469 21.2384 7.7334C24.353 6.41445 27.6743 5.74703 31.0908 5.74703C34.5153 5.74703 37.8286 6.41445 40.9433 7.7334C43.9546 9.00469 46.664 10.8322 48.9921 13.1602C50.3428 14.5109 51.5187 15.9888 52.5278 17.5858C52.7662 17.9672 53.1873 18.1976 53.6322 18.1976H58.2247C58.773 18.1976 59.1226 17.6256 58.8763 17.1409C53.6958 6.83556 43.1918 0.137497 31.4643 0.00242359C14.294 -0.212105 0.0318363 13.8435 5.42822e-05 30.9979C-0.0317278 48.184 13.8967 62.1284 31.0829 62.1284C42.9614 62.1284 53.6402 55.4065 58.8763 44.9819C59.1226 44.4973 58.765 43.9252 58.2247 43.9252Z" fill="#FF3030"/>
</svg>
