<svg width="16" height="14" viewBox="0 0 16 14" fill="none" xmlns="http://www.w3.org/2000/svg">
<path d="M11.4992 2.96789e-08C12.1339 -9.77095e-05 12.7448 0.241216 13.2081 0.674993C13.6714 1.10877 13.9524 1.70253 13.994 2.33584L13.999 2.49983V5.04965C14.5348 5.15923 15.0199 5.44142 15.38 5.85301C15.7402 6.2646 15.9554 6.78288 15.9929 7.32849L15.9989 7.49948V13.4991C15.9991 13.624 15.9526 13.7445 15.8684 13.8368C15.7842 13.9291 15.6685 13.9866 15.5441 13.9979C15.4197 14.0092 15.2955 13.9735 15.1961 13.8978C15.0967 13.8221 15.0292 13.712 15.007 13.5891L14.999 13.4991V10.9992H0.99993V13.4991C1.00016 13.624 0.953605 13.7445 0.869431 13.8368C0.785258 13.9291 0.669567 13.9866 0.54514 13.9979C0.420714 14.0092 0.29657 13.9735 0.197155 13.8978C0.0977395 13.8221 0.0302581 13.712 0.00799939 13.5891L5.21105e-08 13.4991V7.49948C-0.000117567 6.92319 0.198878 6.36456 0.563308 5.91814C0.927737 5.47171 1.43522 5.16491 1.99986 5.04965V2.49983C1.99976 1.86515 2.24108 1.2542 2.67485 0.7909C3.10863 0.327598 3.70239 0.0466344 4.3357 0.0049998L4.49969 2.96789e-08H11.4992ZM13.4991 5.99958H2.49983C2.12713 5.99958 1.76777 6.13833 1.49179 6.3888C1.2158 6.63928 1.04296 6.98353 1.00693 7.35449L0.99993 7.49948V9.9993H14.999V7.49948C14.999 7.12678 14.8602 6.76742 14.6097 6.49144C14.3593 6.21545 14.015 6.04261 13.644 6.00658L13.4991 5.99958ZM11.4992 0.99993H4.49969C4.12683 0.999948 3.76735 1.13884 3.49134 1.38952C3.21533 1.6402 3.04258 1.9847 3.00679 2.35584L2.99979 2.49983V4.99965H3.99972V4.49969C3.99972 4.36709 4.0524 4.23992 4.14616 4.14616C4.23992 4.0524 4.36709 3.99972 4.49969 3.99972H6.99951C7.13211 3.99972 7.25928 4.0524 7.35304 4.14616C7.4468 4.23992 7.49948 4.36709 7.49948 4.49969V4.99965H8.49941V4.49969C8.49941 4.36709 8.55208 4.23992 8.64584 4.14616C8.7396 4.0524 8.86677 3.99972 8.99937 3.99972H11.4992C11.6318 3.99972 11.759 4.0524 11.8527 4.14616C11.9465 4.23992 11.9992 4.36709 11.9992 4.49969V4.99965H12.9991V2.49983C12.9991 2.12713 12.8603 1.76777 12.6099 1.49179C12.3594 1.2158 12.0151 1.04296 11.6442 1.00693L11.4992 0.99993Z" fill="#FF5A3C"/>
</svg>
