<svg width="18" height="24" viewBox="0 0 18 24" fill="none" xmlns="http://www.w3.org/2000/svg">
<path d="M8.92677 8.1773L7.17107 9.81024C7.40113 10.6317 7.72548 11.4233 8.13755 12.1692C8.5645 12.9063 9.07995 13.5878 9.67228 14.1981L11.9476 13.4721C12.5713 13.2742 13.2396 13.2692 13.8661 13.458C14.4926 13.6467 15.0483 14.0203 15.4615 14.5306L16.7582 16.1244C17.2845 16.7715 17.5471 17.5955 17.4931 18.43C17.439 19.2645 17.0722 20.0472 16.4668 20.6199C14.3541 22.6146 11.0977 23.2917 8.65965 21.3092C6.50843 19.5513 4.6967 17.4102 3.31484 14.9926C1.91683 12.5686 0.983537 9.90187 0.563516 7.13105C0.0948438 4.00207 2.3095 1.49889 5.06569 0.643308C5.86026 0.398589 6.71774 0.469136 7.4623 0.840485C8.20686 1.21183 8.78209 1.85584 9.07004 2.64048L9.78155 4.56675C10.0112 5.18582 10.0527 5.85964 9.90096 6.50254C9.74918 7.14545 9.41093 7.7284 8.9292 8.1773H8.92677Z" stroke="#FF3030"/>
</svg>
