<svg width="23" height="19" viewBox="0 0 23 19" fill="none" xmlns="http://www.w3.org/2000/svg">
<path d="M23 2.21787C22.1542 2.59266 21.2456 2.8459 20.2904 2.96036C21.276 2.37061 22.0133 1.44242 22.3649 0.348979C21.4389 0.899 20.4254 1.28615 19.3686 1.49361C18.6579 0.734776 17.7165 0.231808 16.6907 0.0627951C15.6648 -0.106218 14.6119 0.0681814 13.6953 0.558916C12.7787 1.04965 12.0498 1.82926 11.6217 2.77672C11.1936 3.72417 11.0903 4.78645 11.3278 5.79864C9.4515 5.70443 7.61598 5.21675 5.94036 4.36725C4.26474 3.51775 2.78646 2.3254 1.60147 0.867609C1.19629 1.56654 0.963314 2.3769 0.963314 3.23993C0.962862 4.01686 1.15419 4.78189 1.52031 5.46714C1.88644 6.15239 2.41605 6.73667 3.06214 7.16815C2.31284 7.14431 1.58007 6.94184 0.924822 6.5776V6.63838C0.924746 7.72805 1.30167 8.78418 1.99164 9.62758C2.68161 10.471 3.64213 11.0497 4.71021 11.2655C4.01511 11.4536 3.28635 11.4814 2.57897 11.3466C2.88032 12.2842 3.46732 13.1041 4.25779 13.6915C5.04827 14.2789 6.00265 14.6044 6.98732 14.6224C5.31578 15.9346 3.25145 16.6464 1.1264 16.6433C0.749968 16.6434 0.373855 16.6214 0 16.5774C2.15705 17.9643 4.66801 18.7004 7.23245 18.6975C15.9134 18.6975 20.6591 11.5076 20.6591 5.27191C20.6591 5.06932 20.654 4.8647 20.6449 4.66211C21.568 3.99455 22.3648 3.16791 22.998 2.22091L23 2.21787Z" fill="white"/>
</svg>
