<svg width="20" height="18" viewBox="0 0 20 18" fill="none" xmlns="http://www.w3.org/2000/svg">
<path d="M19.5161 3.68874C19.2058 2.9669 18.7584 2.31277 18.1988 1.76298C17.6389 1.21154 16.9787 0.773325 16.2542 0.472155C15.5029 0.15862 14.6971 -0.0018648 13.8835 1.63478e-05C12.7422 1.63478e-05 11.6286 0.314 10.6609 0.90708C10.4294 1.04895 10.2095 1.20478 10.0011 1.37457C9.79279 1.20478 9.57286 1.04895 9.34135 0.90708C8.37364 0.314 7.26009 1.63478e-05 6.11876 1.63478e-05C5.2969 1.63478e-05 4.50052 0.158171 3.74811 0.472155C3.02118 0.774509 2.36601 1.20943 1.80345 1.76298C1.24319 2.31215 0.795642 2.96643 0.486167 3.68874C0.164371 4.43998 0 5.23773 0 6.05874C0 6.83323 0.157425 7.64028 0.469961 8.46129C0.731565 9.1474 1.10661 9.8591 1.58583 10.5778C2.34518 11.7151 3.38928 12.9013 4.68572 14.1037C6.83412 16.0969 8.96167 17.4738 9.05196 17.5296L9.60064 17.8831C9.84372 18.039 10.1563 18.039 10.3993 17.8831L10.948 17.5296C11.0383 17.4715 13.1635 16.0969 15.3143 14.1037C16.6107 12.9013 17.6548 11.7151 18.4141 10.5778C18.8934 9.8591 19.2707 9.1474 19.53 8.46129C19.8425 7.64028 20 6.83323 20 6.05874C20.0023 5.23773 19.8379 4.43998 19.5161 3.68874ZM10.0011 16.0434C10.0011 16.0434 1.75946 10.7383 1.75946 6.05874C1.75946 3.68874 3.71107 1.76763 6.11876 1.76763C7.81108 1.76763 9.27884 2.71656 10.0011 4.10274C10.7234 2.71656 12.1912 1.76763 13.8835 1.76763C16.2912 1.76763 18.2428 3.68874 18.2428 6.05874C18.2428 10.7383 10.0011 16.0434 10.0011 16.0434Z" fill="white"/>
</svg>
