<svg width="21" height="21" viewBox="0 0 21 21" fill="none" xmlns="http://www.w3.org/2000/svg">
<path d="M0 10.5C0 14.9826 2.80962 18.8099 6.76375 20.3158C6.6675 19.4959 6.56512 18.144 6.78562 17.1955C6.9755 16.38 8.0115 11.9998 8.0115 11.9998C8.0115 11.9998 7.69912 11.3741 7.69912 10.4475C7.69912 8.995 8.54088 7.91 9.59 7.91C10.4825 7.91 10.913 8.57938 10.913 9.38175C10.913 10.2786 10.3416 11.6191 10.0468 12.8625C9.80088 13.9029 10.5691 14.7516 11.5946 14.7516C13.4523 14.7516 14.8811 12.7925 14.8811 9.9645C14.8811 7.46112 13.0821 5.712 10.514 5.712C7.54075 5.712 5.79513 7.94237 5.79513 10.248C5.79513 11.1466 6.14075 12.1091 6.573 12.6332C6.60985 12.6728 6.63589 12.7212 6.64861 12.7738C6.66133 12.8264 6.6603 12.8813 6.64562 12.9334C6.566 13.2641 6.38925 13.9738 6.35512 14.119C6.30875 14.3097 6.20375 14.3509 6.00513 14.2581C4.69963 13.6509 3.88413 11.7425 3.88413 10.2095C3.88413 6.91162 6.279 3.88413 10.7896 3.88413C14.4156 3.88413 17.234 6.468 17.234 9.92075C17.234 13.5231 14.9634 16.4229 11.8099 16.4229C10.7502 16.4229 9.75537 15.8716 9.41412 15.2215C9.41412 15.2215 8.89 17.2183 8.76313 17.7065C8.51638 18.655 7.83212 19.8555 7.40775 20.5371C8.386 20.8381 9.42375 21 10.5 21C16.2986 21 21 16.2986 21 10.5C21 4.70138 16.2986 0 10.5 0C4.70138 0 0 4.70138 0 10.5Z" fill="white"/>
</svg>
