<svg width="17" height="22" viewBox="0 0 17 22" fill="none" xmlns="http://www.w3.org/2000/svg">
<path d="M8.5 0C6.24648 0.00265854 4.08602 0.899045 2.49253 2.49253C0.899053 4.08601 0.00266759 6.24647 9.04313e-06 8.49999C-0.00269001 10.3416 0.598857 12.1332 1.71237 13.6C1.71237 13.6 1.94419 13.9052 1.98205 13.9493L8.5 21.6363L15.021 13.9454C15.055 13.9044 15.2876 13.6 15.2876 13.6L15.2884 13.5977C16.4014 12.1315 17.0026 10.3407 17 8.49999C16.9973 6.24647 16.1009 4.08601 14.5075 2.49253C12.914 0.899045 10.7535 0.00265854 8.5 0ZM8.5 11.5909C7.88868 11.5909 7.29108 11.4096 6.78278 11.07C6.27449 10.7304 5.87832 10.2476 5.64438 9.68283C5.41043 9.11804 5.34922 8.49656 5.46849 7.89699C5.58775 7.29741 5.88213 6.74666 6.3144 6.31439C6.74667 5.88212 7.29742 5.58774 7.89699 5.46848C8.49657 5.34921 9.11805 5.41042 9.68284 5.64437C10.2476 5.87831 10.7304 6.27448 11.07 6.78278C11.4096 7.29107 11.5909 7.88867 11.5909 8.49999C11.5899 9.31944 11.2639 10.105 10.6845 10.6845C10.105 11.2639 9.31945 11.5899 8.5 11.5909Z" fill="white"/>
</svg>
