<svg width="17" height="14" viewBox="0 0 17 14" fill="none" xmlns="http://www.w3.org/2000/svg">
<path d="M5.38991e-09 3.98533L8.23264 8.295C8.31522 8.33822 8.40692 8.36078 8.5 8.36078C8.59308 8.36078 8.68478 8.33822 8.76736 8.295L17 3.98611V11.4722C17 12.1179 16.7546 12.7391 16.3141 13.2084C15.8735 13.6777 15.2713 13.9596 14.6308 13.9961L14.4886 14H2.51136C1.86989 14 1.25272 13.753 0.786458 13.3096C0.320193 12.8662 0.0401808 12.26 0.00386373 11.6153L5.38991e-09 11.4722V3.98533ZM2.51136 5.42515e-09H14.4886C15.1301 -4.22697e-05 15.7473 0.246986 16.2135 0.690411C16.6798 1.13384 16.9598 1.74004 16.9961 2.38467L17 2.52778V2.67089L8.5 7.11978L5.38991e-09 2.67089V2.52778C-4.19952e-05 1.88212 0.245383 1.26091 0.685928 0.791598C1.12647 0.322285 1.72874 0.0404434 2.36918 0.00388898L2.51136 5.42515e-09H14.4886H2.51136Z" fill="white"/>
</svg>
