<svg width="61" height="64" viewBox="0 0 61 64" fill="none" xmlns="http://www.w3.org/2000/svg">
<path d="M30.0354 0.00145877C31.0849 0.00145877 32.1183 0.0695551 33.0797 0.229782C34.0265 0.353848 34.9607 0.560254 35.8716 0.846654C36.7849 1.12305 37.6782 1.46753 38.5715 1.90014C39.4407 2.31273 40.3339 2.81744 41.2272 3.36622C42.7373 4.32758 44.2235 5.10468 45.7376 5.72556C48.7184 6.91858 51.8704 7.62849 55.0748 7.82853C56.7011 7.9447 58.3715 8.01279 60.1099 8.01279V24.0355C60.1099 27.0798 59.7214 29.9638 58.9443 32.7117C58.1978 35.4204 57.1371 38.0325 55.7838 40.4947C54.4362 42.9535 52.8417 45.2687 51.0251 47.4045C49.1805 49.5888 47.1834 51.6395 45.0486 53.5412C42.8856 55.4485 40.6074 57.221 38.227 58.8487C35.8476 60.499 33.4442 62.0332 31.0408 63.4272L30.0794 64L29.1181 63.4272C26.6474 61.9968 24.2341 60.4694 21.8838 58.8487C19.49 57.2393 17.2107 55.4659 15.0622 53.5412C12.9287 51.6395 10.9329 49.5888 9.08975 47.4045C7.27796 45.2597 5.67635 42.9458 4.30698 40.4947C2.97682 38.0215 1.91721 35.4121 1.14651 32.7117C0.364482 29.8867 -0.0210809 26.9667 0.000888462 24.0355V8.01279C1.74335 8.01279 3.41372 7.9447 5.04002 7.82853C6.64093 7.71734 8.23147 7.48839 9.79875 7.14356C11.3329 6.79908 12.8671 6.34243 14.3772 5.72556C15.9443 5.09312 17.4467 4.31107 18.8636 3.39025C20.6261 2.24463 22.4126 1.39944 24.1751 0.842649C26.0732 0.260752 28.0502 -0.0230219 30.0354 0.00145877ZM56.0802 11.9504C53.048 11.8032 50.0441 11.2963 47.1316 10.4402C44.2344 9.57602 41.4749 8.30417 38.936 6.66288C37.619 5.79844 36.1888 5.1204 34.686 4.64803C33.1848 4.19433 31.6236 3.97015 30.0554 3.98309C28.4756 3.97287 26.9029 4.19696 25.3888 4.64803C23.8838 5.10504 22.4554 5.78414 21.1508 6.66288C18.6074 8.31312 15.8408 9.59055 12.9352 10.4562C10.0952 11.2814 7.12296 11.7861 4.00656 11.9704V24.0555C4.00656 26.7112 4.35104 29.2508 5.04002 31.6983C5.74191 34.1245 6.70912 36.4659 7.9241 38.6802C9.15363 40.9175 10.6028 43.0269 12.2502 44.9771C13.9206 46.9439 15.7031 48.7745 17.6258 50.5129C19.5485 52.2554 21.5634 53.8576 23.6704 55.3438C25.7974 56.8339 27.9284 58.1838 30.0554 59.4175C32.2333 58.1496 34.3569 56.7905 36.4204 55.3438C38.5413 53.8623 40.5668 52.2489 42.485 50.5129C44.4077 48.7745 46.1942 46.9439 47.8646 44.9771C49.5122 43.027 50.9614 40.9176 52.1907 38.6802C53.4003 36.4687 54.3532 34.1262 55.0307 31.6983C55.7406 29.2132 56.094 26.6399 56.0802 24.0555V11.9504Z" fill="#FF3030"/>
<path fill-rule="evenodd" clip-rule="evenodd" d="M44.9699 18.865L43.2074 17.3509L41.5811 17.4911L24.1164 38.1122L18.1679 29.6202L16.5657 29.3478L14.7111 30.6737L14.4347 32.276L22.0815 43.1954L22.9507 43.6761L24.7813 43.7883L25.7186 43.3797L45.086 20.4873L44.9699 18.865Z" fill="#FF3030"/>
</svg>
