<svg width="70" height="64" viewBox="0 0 70 64" fill="none" xmlns="http://www.w3.org/2000/svg">
<path d="M34.8039 26.7964C42.525 19.0335 61.8325 32.6151 34.8039 50.0804C7.77526 32.6151 27.0827 19.0335 34.8039 26.7964Z" fill="#FF3030"/>
<path d="M38.0826 1.35856C37.2125 0.488675 36.0325 0 34.8021 0C33.5717 0 32.3917 0.488675 31.5215 1.35856L0.678746 32.1967C0.243718 32.6324 -0.000434514 33.223 5.80527e-07 33.8386C0.000435675 34.4543 0.245422 35.0446 0.681066 35.4796C1.11671 35.9146 1.70733 36.1588 2.32298 36.1583C2.93864 36.1579 3.52891 35.9129 3.96394 35.4773L6.96145 32.4798V57.0398C6.96145 58.8858 7.69475 60.6561 9.00003 61.9614C10.3053 63.2667 12.0757 64 13.9216 64H55.6826C57.5285 64 59.2989 63.2667 60.6041 61.9614C61.9094 60.6561 62.6427 58.8858 62.6427 57.0398V32.4798L65.6402 35.4773C66.0753 35.9129 66.6655 36.1579 67.2812 36.1583C67.8969 36.1588 68.4875 35.9146 68.9231 35.4796C69.3588 35.0446 69.6037 34.4543 69.6042 33.8386C69.6046 33.223 69.3605 32.6324 68.9254 32.1967L58.0026 21.2785V5.99867C58.0026 5.38335 57.7582 4.79324 57.3231 4.35814C56.888 3.92305 56.2979 3.67861 55.6826 3.67861H51.0425C50.4271 3.67861 49.837 3.92305 49.4019 4.35814C48.9668 4.79324 48.7224 5.38335 48.7224 5.99867V11.9983L38.0826 1.35856ZM58.0026 27.8396V57.0398C58.0026 57.6552 57.7582 58.2453 57.3231 58.6804C56.888 59.1155 56.2979 59.3599 55.6826 59.3599H13.9216C13.3063 59.3599 12.7162 59.1155 12.2811 58.6804C11.846 58.2453 11.6016 57.6552 11.6016 57.0398V27.8396L34.8021 4.63912L58.0026 27.8396Z" fill="#FF3030"/>
</svg>
